<?xml version="1.0" standalone="no"?>
<!DOCTYPE svg PUBLIC "-//W3C//DTD SVG 20010904//EN"
 "http://www.w3.org/TR/2001/REC-SVG-20010904/DTD/svg10.dtd">
<svg version="1.0" xmlns="http://www.w3.org/2000/svg"
 width="559.000000pt" height="559.000000pt" viewBox="0 0 559.000000 559.000000"
 preserveAspectRatio="xMidYMid meet">
<metadata>
Created by potrace 1.11, written by Peter Selinger 2001-2013
</metadata>
<g transform="translate(0.000000,559.000000) scale(0.100000,-0.100000)"
fill="#000000" stroke="none">
<path d="M2619 5496 c-2 -2 -38 -6 -79 -10 -41 -3 -84 -8 -95 -10 -11 -2 -42
-7 -68 -10 -41 -6 -204 -38 -257 -51 -39 -10 -185 -56 -246 -78 -655 -238
-1200 -724 -1508 -1345 -117 -234 -213 -528 -250 -767 -27 -170 -30 -226 -31
-440 0 -278 3 -315 46 -535 210 -1084 1065 -1936 2159 -2149 186 -36 282 -45
505 -45 315 0 497 27 805 117 332 98 673 286 965 531 200 168 459 476 581 691
132 234 256 536 289 705 2 8 10 42 18 75 16 62 32 154 42 240 4 28 9 61 11 75
12 58 11 470 -1 572 -14 116 -22 169 -30 208 -2 14 -10 50 -16 80 -41 203
-124 440 -225 643 -50 99 -167 298 -188 320 -7 7 -18 22 -25 34 -6 13 -47 67
-90 121 -293 368 -689 663 -1121 837 -157 63 -401 134 -520 151 -19 3 -57 9
-85 14 -27 5 -72 12 -100 15 -57 8 -480 17 -486 11z"/>
</g>
</svg>
